Simulation
nRows=16
nColumns=15
endheader
time  TH_x TH_y TH_z SC_y  SC_z  SC_x  AC_y  AC_z  AC_x  GH_y  GH_z  GH_yy  EL_x  PS_y
0.0  0.000000  0.000000  0.000000  -40.97484877243665  6.293857566463187  5.290427962726946  38.56639783978151  -1.5744013322769173  -7.799420324981083  100.22698309088378  6.876665983153324  -69.07314843610678  22.628890708411245  120.000000
0.05745  0.000000  0.000000  0.000000  -38.94144470314439  4.8870266526548765  4.083052457171656  39.98899323047063  -2.2937772002158163  -6.309482933996989  49.04374196506737  6.631191761632196  -21.696514382125258  22.06551471407876  120.000000
0.1149  0.000000  0.000000  0.000000  -36.980650507182006  3.3580976586313707  2.7283895430597633  41.55200402802599  -3.131636977525044  -4.700564527861709  16.697565321017418  10.208760791018465  6.916422902597525  21.674976246318362  120.000000
0.17235  0.000000  0.000000  0.000000  -35.25986700297315  1.657381073035861  1.2815383683083337  43.25187891123668  -4.179512549489231  -2.9016515922663633  1.7545853090059549  15.225579781629692  18.268948728744864  21.53940123613575  120.000000
0.2298  0.000000  0.000000  0.000000  -33.90214783689267  -0.256132755023461  -0.17679991988682256  45.134903794282145  -5.532999461587284  -0.8747580581554916  -6.7460357603376835  20.925614348979405  23.395458031358633  21.67744894405674  120.000000
0.28725  0.000000  0.000000  0.000000  -32.967714500740904  -2.3733951885273274  -1.5740126014281461  47.1701169085143  -7.18995800151263  1.3402020646492752  -12.47939428582788  27.11259546288872  25.98287489371306  22.01815826553752  120.000000
0.3447  0.000000  0.000000  0.000000  -32.43199404462045  -4.54988105934975  -2.811049102099946  49.206721182313956  -9.075117792710637  3.6458314926811095  -16.72027670926685  33.56001275034239  27.298666380669903  22.45486280774532  120.000000
0.40215  0.000000  0.000000  0.000000  -32.20262782828937  -6.555940414375918  -3.7757192038929532  51.06319085279429  -11.039322245717049  5.9097078456092165  -19.9189327002151  39.95508175591332  27.78017251577565  22.86942713801913  120.000000
0.4596  0.000000  0.000000  0.000000  -32.191083878283735  -8.127824274380929  -4.470952522502672  52.63290798863023  -12.799624232410357  8.021060404682538  -22.2187290006048  45.98626527847142  27.560158269304537  23.171063310522577  120.000000
0.51705  0.000000  0.000000  0.000000  -32.34561122530593  -9.063728540785444  -4.98932103597074  53.908700732498225  -14.009788291338358  9.879078202983061  -23.70926413751432  51.434817017374165  26.70785976311487  23.31060234266384  120.000000
0.5745  0.000000  0.000000  0.000000  -32.61529705540088  -9.306508451656061  -5.406429000548672  54.9675847886626  -14.412378824610222  11.41382719675166  -24.532681771447713  56.189699403671426  25.32610249096816  23.267838256611114  120.000000
0.63195  0.000000  0.000000  0.000000  -32.983616905689644  -8.90393954281467  -5.7962080298344265  55.92462678094277  -13.87708223032954  12.659267094949941  -24.884808208480298  60.20787302050818  23.57483527856221  23.049872266541538  120.000000
0.6894  0.000000  0.000000  0.000000  -33.51316972572635  -7.967124164646123  -6.227078278089311  56.89205911798224  -12.378053627482892  13.72586572385903  -24.978914165266108  63.49289785001638  21.67683304187556  22.687802384728695  120.000000
0.74685  0.000000  0.000000  0.000000  -34.350448957656184  -6.637466459110975  -6.758941301139416  57.93917711856776  -9.965174186175117  14.730179144417479  -24.904439033924348  66.04684260261104  19.779944050142113  22.227130817146996  120.000000
0.8043  0.000000  0.000000  0.000000  -35.6309856359418  -5.054769304819372  -7.419771038322792  59.04308026258212  -6.733017395945787  15.71949945895686  -24.576813107244234  67.83580562009227  17.849413868960127  21.714932595976137  120.000000
0.86175  0.000000  0.000000  0.000000  -37.32652871176181  -3.350773884210823  -8.166149358844958  60.11656675614676  -2.828917625664803  16.67976022789029  -23.920213205006146  68.86543453387044  15.802039565682763  21.187949491891157  120.000000
